<mxfile host="app.diagrams.net" modified="2023-12-28T08:48:50.522Z" agent="Mozilla/5.0 (Windows NT 10.0; Win64; x64) AppleWebKit/537.36 (KHTML, like Gecko) Chrome/114.0.0.0 Safari/537.36" version="22.1.15" etag="GaXI5_O3fJOv8J9xd38e" type="github">
  <diagram name="Page-1" id="epH_2f9spI8XAB44Lvf6">
    <mxGraphModel>
      <root>
        <mxCell id="0" />
        <mxCell id="1" parent="0" />
      </root>
    </mxGraphModel>
  </diagram>
</mxfile>
